<svg xmlns="http://www.w3.org/2000/svg" xmlns:xlink="http://www.w3.org/1999/xlink" width="100" height="100" viewBox="0 0 100 100">
  <defs>
    <clipPath id="clip-path">
      <rect id="_450c1c13c0fbdb20dad4e9d4981cf03b" data-name="450c1c13c0fbdb20dad4e9d4981cf03b" width="100" height="100" rx="50" transform="translate(92 6016)" fill="#f4f4f4"/>
    </clipPath>
    <clipPath id="clip-path-2">
      <rect id="사각형_675" data-name="사각형 675" width="100" height="100" fill="none"/>
    </clipPath>
  </defs>
  <g id="마스크_그룹_5" data-name="마스크 그룹 5" transform="translate(-92 -6016)" clip-path="url(#clip-path)">
    <g id="그룹_384" data-name="그룹 384" transform="translate(92 6016)">
      <rect id="사각형_674" data-name="사각형 674" width="100" height="100" fill="#ff8dea"/>
      <g id="그룹_376" data-name="그룹 376">
        <g id="그룹_375" data-name="그룹 375" clip-path="url(#clip-path-2)">
          <path id="패스_2150" data-name="패스 2150" d="M77.152,33.042a21.723,21.723,0,0,1-10.51,2.548,22.667,22.667,0,0,1-8.321-1.534,23.721,23.721,0,0,1-16.643,0,22.655,22.655,0,0,1-8.321,1.534,21.719,21.719,0,0,1-10.509-2.548A34.925,34.925,0,0,0,16,53.336c0,17.293,6.078,27.99,33.935,28.024v0h.13v0C77.922,81.326,84,70.629,84,53.336a34.923,34.923,0,0,0-6.848-20.294" fill="#fffadc"/>
          <path id="패스_2151" data-name="패스 2151" d="M74.549,29.848A33.309,33.309,0,0,0,50.065,18.642v0l-.065,0-.065,0v0A33.307,33.307,0,0,0,25.451,29.848a36.938,36.938,0,0,0-2.6,3.194,21.719,21.719,0,0,0,10.509,2.547,22.655,22.655,0,0,0,8.321-1.533,23.721,23.721,0,0,0,16.643,0,22.666,22.666,0,0,0,8.321,1.533,21.723,21.723,0,0,0,10.51-2.547,37.126,37.126,0,0,0-2.6-3.194" fill="#2d1000"/>
          <path id="패스_2152" data-name="패스 2152" d="M35.335,49.311A2.966,2.966,0,1,1,38.3,52.277a2.966,2.966,0,0,1-2.966-2.966" fill="#2d1000"/>
          <path id="패스_2153" data-name="패스 2153" d="M58.733,49.311A2.966,2.966,0,1,1,61.7,52.277a2.966,2.966,0,0,1-2.966-2.966" fill="#2d1000"/>
          <path id="패스_2154" data-name="패스 2154" d="M50,68.058a19.045,19.045,0,0,1-9.267-2.421,2,2,0,1,1,1.946-3.5,14.963,14.963,0,0,0,14.642,0,2,2,0,0,1,1.946,3.5A19.045,19.045,0,0,1,50,68.058" fill="#2d1000"/>
        </g>
      </g>
    </g>
  </g>
</svg>
