<svg xmlns="http://www.w3.org/2000/svg" xmlns:xlink="http://www.w3.org/1999/xlink" width="90" height="90" viewBox="0 0 90 90">
  <defs>
    <clipPath id="clip-path">
      <rect id="사각형_633" data-name="사각형 633" width="90" height="90" fill="none"/>
    </clipPath>
  </defs>
  <g id="그룹_346" data-name="그룹 346" transform="translate(0 0)">
    <g id="그룹_345" data-name="그룹 345" transform="translate(0 0)" clip-path="url(#clip-path)">
      <path id="패스_2141" data-name="패스 2141" d="M35.285,61.185a21.289,21.289,0,0,1-6.426-6.441c-12.475-19.513-7.816-39.641,4.8-51.21A1.6,1.6,0,0,0,32.107.825,45.582,45.582,0,1,0,88.9,58.165a1.6,1.6,0,0,0-2.692-1.573c-11.575,12.48-31.546,17.033-50.923,4.593" transform="translate(0 0.002)" fill="#5d62f3"/>
      <path id="패스_2142" data-name="패스 2142" d="M79.941,9.4l9.128,1.421a1.076,1.076,0,0,1,.587,1.853l-6.7,6.244a1.072,1.072,0,0,0-.33.954l1.444,8.956a1.1,1.1,0,0,1-1.615,1.12l-8.124-4.324A1.125,1.125,0,0,0,73.3,25.61l-8.235,4.114a1.1,1.1,0,0,1-1.585-1.161l1.68-8.915a1.067,1.067,0,0,0-.3-.962l-6.534-6.413a1.077,1.077,0,0,1,.636-1.838l9.163-1.187a1.1,1.1,0,0,0,.838-.581l4.2-8.078a1.112,1.112,0,0,1,1.977.025L79.118,8.8a1.1,1.1,0,0,0,.823.6" transform="translate(0 0)" fill="#32e7ad"/>
      <path id="패스_2143" data-name="패스 2143" d="M54.26,38.054,60.844,39.1a1.052,1.052,0,0,1,.557,1.8l-4.834,4.6a1.051,1.051,0,0,0-.313.925l1.041,6.6a1.048,1.048,0,0,1-1.534,1.087L49.9,50.931a1.045,1.045,0,0,0-.975-.012l-5.94,3.033a1.049,1.049,0,0,1-1.506-1.127l1.212-6.573a1.051,1.051,0,0,0-.289-.933l-4.712-4.728a1.051,1.051,0,0,1,.6-1.784l6.609-.875a1.044,1.044,0,0,0,.8-.565l3.028-5.954a1.047,1.047,0,0,1,1.879.024l2.872,6.032a1.046,1.046,0,0,0,.781.585" transform="translate(0 0.083)" fill="#fc3fd6"/>
    </g>
  </g>
</svg>
