<svg xmlns="http://www.w3.org/2000/svg" xmlns:xlink="http://www.w3.org/1999/xlink" width="100" height="100" viewBox="0 0 100 100">
  <defs>
    <clipPath id="clip-path">
      <rect id="사각형_684" data-name="사각형 684" width="100" height="100" rx="50" transform="translate(92 6451)" fill="#f4f4f4"/>
    </clipPath>
    <clipPath id="clip-path-2">
      <rect id="사각형_683" data-name="사각형 683" width="100" height="100" fill="none"/>
    </clipPath>
  </defs>
  <g id="마스크_그룹_6" data-name="마스크 그룹 6" transform="translate(-92 -6451)" clip-path="url(#clip-path)">
    <g id="그룹_388" data-name="그룹 388" transform="translate(92 6451)">
      <rect id="사각형_681" data-name="사각형 681" width="100" height="100" fill="#5d62f3"/>
      <g id="그룹_387" data-name="그룹 387">
        <g id="그룹_386" data-name="그룹 386" clip-path="url(#clip-path-2)">
          <path id="패스_2167" data-name="패스 2167" d="M50,11.824h0c21.539,0,39,16.615,39,37.11V69.868c0,20.5-17.461,16.176-39,16.176S11,90.363,11,69.868V48.934c0-20.495,17.461-37.11,39-37.11" fill="#ffce00"/>
          <path id="패스_2168" data-name="패스 2168" d="M77.152,33.042a21.723,21.723,0,0,1-10.51,2.548,22.667,22.667,0,0,1-8.321-1.534,23.721,23.721,0,0,1-16.643,0,22.655,22.655,0,0,1-8.321,1.534,21.719,21.719,0,0,1-10.509-2.548A34.925,34.925,0,0,0,16,53.336c0,17.293,6.078,27.99,33.935,28.024v0h.13v0C77.922,81.326,84,70.629,84,53.336a34.923,34.923,0,0,0-6.848-20.294" fill="#fffadc"/>
          <path id="패스_2169" data-name="패스 2169" d="M35.335,49.311A2.966,2.966,0,1,1,38.3,52.277a2.966,2.966,0,0,1-2.966-2.966" fill="#2d1000"/>
          <path id="패스_2170" data-name="패스 2170" d="M58.733,49.311A2.966,2.966,0,1,1,61.7,52.277a2.966,2.966,0,0,1-2.966-2.966" fill="#2d1000"/>
          <path id="패스_2171" data-name="패스 2171" d="M50,68.058a19.045,19.045,0,0,1-9.267-2.421,2,2,0,1,1,1.946-3.5,14.963,14.963,0,0,0,14.642,0,2,2,0,0,1,1.946,3.5A19.045,19.045,0,0,1,50,68.058" fill="#2d1000"/>
          <rect id="사각형_682" data-name="사각형 682" width="62.858" height="10.012" transform="translate(18.451 28.626)" fill="#ffce00"/>
        </g>
      </g>
    </g>
  </g>
</svg>
