<svg xmlns="http://www.w3.org/2000/svg" xmlns:xlink="http://www.w3.org/1999/xlink" width="100" height="100" viewBox="0 0 100 100">
  <defs>
    <clipPath id="clip-path">
      <rect id="사각형_661" data-name="사각형 661" width="100" height="100" rx="50" transform="translate(92 6886)" fill="#f4f4f4"/>
    </clipPath>
    <clipPath id="clip-path-2">
      <rect id="사각형_680" data-name="사각형 680" width="100" height="100" fill="none"/>
    </clipPath>
  </defs>
  <g id="마스크_그룹_7" data-name="마스크 그룹 7" transform="translate(-92 -6886)" clip-path="url(#clip-path)">
    <g id="그룹_389" data-name="그룹 389" transform="translate(92 6886)">
      <rect id="사각형_679" data-name="사각형 679" width="100" height="100" fill="#32e7ad"/>
      <g id="그룹_382" data-name="그룹 382">
        <g id="그룹_381" data-name="그룹 381" clip-path="url(#clip-path-2)">
          <path id="패스_2160" data-name="패스 2160" d="M46.466,25.548s-8.4,16.573-28.561,16.9A32.964,32.964,0,0,0,16,53.335c0,17.294,6.078,27.991,33.935,28.025h.13C77.922,81.326,84,70.629,84,53.335a32.94,32.94,0,0,0-1.9-10.869c-4.045,0-35.635-.56-35.635-16.918" fill="#fffadc"/>
          <path id="패스_2161" data-name="패스 2161" d="M27.678,34.914a22.729,22.729,0,0,0,2.751.5,22.729,22.729,0,0,1-2.751-.5" fill="#2d1000"/>
          <path id="패스_2162" data-name="패스 2162" d="M23.96,33.61a20.267,20.267,0,0,0,3.718,1.305A20.267,20.267,0,0,1,23.96,33.61" fill="#2d1000"/>
          <path id="패스_2163" data-name="패스 2163" d="M74.549,29.848A33.307,33.307,0,0,0,50.065,18.642v0l-.065,0-.065,0v0A33.309,33.309,0,0,0,25.451,29.848a37.126,37.126,0,0,0-2.6,3.194q.539.3,1.112.568a20.294,20.294,0,0,0,3.718,1.305,22.925,22.925,0,0,0,2.751.5,24.557,24.557,0,0,0,2.928.173,24.557,24.557,0,0,1-2.928-.173,22.925,22.925,0,0,1-2.751-.5A20.294,20.294,0,0,1,23.96,33.61q-.573-.269-1.112-.568a36.735,36.735,0,0,0-4.943,9.407c20.163-.328,28.561-16.9,28.561-16.9,0,16.358,31.59,16.914,35.635,16.918a36.716,36.716,0,0,0-4.949-9.424,37.126,37.126,0,0,0-2.6-3.194" fill="#2d1000"/>
          <path id="패스_2164" data-name="패스 2164" d="M35.335,49.311A2.966,2.966,0,1,1,38.3,52.277a2.966,2.966,0,0,1-2.966-2.966" fill="#2d1000"/>
          <path id="패스_2165" data-name="패스 2165" d="M58.733,49.311A2.966,2.966,0,1,1,61.7,52.277a2.966,2.966,0,0,1-2.966-2.966" fill="#2d1000"/>
          <path id="패스_2166" data-name="패스 2166" d="M50,68.058a19.045,19.045,0,0,1-9.267-2.421,2,2,0,1,1,1.946-3.5,14.963,14.963,0,0,0,14.642,0,2,2,0,0,1,1.946,3.5A19.045,19.045,0,0,1,50,68.058" fill="#2d1000"/>
        </g>
      </g>
    </g>
  </g>
</svg>
