<svg xmlns="http://www.w3.org/2000/svg" xmlns:xlink="http://www.w3.org/1999/xlink" width="90" height="90" viewBox="0 0 90 90">
  <defs>
    <clipPath id="clip-path">
      <rect id="사각형_626" data-name="사각형 626" width="90" height="90" fill="none"/>
    </clipPath>
  </defs>
  <g id="그룹_341" data-name="그룹 341" transform="translate(0 0)">
    <g id="그룹_340" data-name="그룹 340" transform="translate(0 0)" clip-path="url(#clip-path)">
      <path id="패스_2130" data-name="패스 2130" d="M23.691,33.958V9.61A5.591,5.591,0,0,1,29.264,4H61.158A5.169,5.169,0,0,1,66.31,9.186V33.958" transform="translate(0 0.026)" fill="none" stroke="#5d62f3" stroke-linecap="round" stroke-linejoin="round" stroke-width="8"/>
      <path id="패스_2131" data-name="패스 2131" d="M81.179,22.693H8.821A8.85,8.85,0,0,0,0,31.572v49.4a8.85,8.85,0,0,0,8.821,8.879H81.179A8.85,8.85,0,0,0,90,80.972v-49.4a8.85,8.85,0,0,0-8.821-8.879" transform="translate(0 0.149)" fill="#5d62f3"/>
      <rect id="사각형_625" data-name="사각형 625" width="90" height="6.039" transform="translate(0 54.875)" fill="#a9b3ff"/>
      <path id="패스_2132" data-name="패스 2132" d="M28.152,57.628A16.848,16.848,0,1,1,45,74.588,16.9,16.9,0,0,1,28.152,57.628" transform="translate(0 0.266)" fill="#32e7ad"/>
      <path id="패스_2133" data-name="패스 2133" d="M53.01,59.18l-1.476,7.48H47.783l-.57-2.457c-.336-1.428-.776-3.3-1.164-5.023H43.926c-.387,1.719-.8,3.594-1.138,5.023l-.57,2.457H38.6l-1.554-7.48H34.4V57.462H36.68L35.154,50.05h3.39l1.19,7.412h2.329c.181-.782.544-2.256,1.062-4.4l.491-2.031h3l.466,2.031c.517,2.143.88,3.617,1.06,4.4H50.5l1.114-7.412h3.156L53.32,57.462H55.6V59.18ZM40.821,62.932q.078-.368.388-1.675c.181-.871.363-1.541.493-2.077H39.993c.026.269.13.938.31,1.987s.259,1.809.337,2.277h.051c.027-.067.053-.246.13-.512M45.014,54.4l-.726,3.059H45.66Zm3.855,6.3c.207.959.337,1.562.621,2.745h.1c.077-.468.259-1.853.6-4.264H48.507c.129.535.233,1.05.362,1.519" transform="translate(0 0.328)" fill="#5d62f3"/>
    </g>
  </g>
</svg>
