<svg id="그룹_322" data-name="그룹 322" xmlns="http://www.w3.org/2000/svg" xmlns:xlink="http://www.w3.org/1999/xlink" width="90" height="90" viewBox="0 0 90 90">
  <defs>
    <clipPath id="clip-path">
      <rect id="사각형_612" data-name="사각형 612" width="90" height="90" fill="none"/>
    </clipPath>
  </defs>
  <g id="그룹_321" data-name="그룹 321" clip-path="url(#clip-path)">
    <path id="패스_2109" data-name="패스 2109" d="M77.2,13.567A44.754,44.754,0,0,0,46.158.025l-.146,3.826A19.629,19.629,0,0,1,45,43.083a23.458,23.458,0,0,0-1.157,46.888l.353.011c.267.01.535.018.8.018s.538-.008.805-.018l.353-.011A44.986,44.986,0,0,0,77.2,13.567" fill="#5d62f3"/>
    <path id="패스_2110" data-name="패스 2110" d="M43.843,89.97a44.986,44.986,0,0,1-31.04-76.4A44.761,44.761,0,0,1,43.843.024L44.2.014C44.732,0,45.271,0,45.805.014l.4.012A23.459,23.459,0,0,1,45,46.913a19.629,19.629,0,0,0-1.011,39.232ZM45,3.826c-.225,0-.45.008-.674.015l-.385.012A40.924,40.924,0,0,0,3.83,45a40.91,40.91,0,0,0,23.907,37.44A23.469,23.469,0,0,1,45,43.083,19.629,19.629,0,0,0,46.029,3.852l-.353-.011c-.224-.007-.45-.015-.676-.015" fill="#5d62f3"/>
    <path id="패스_2111" data-name="패스 2111" d="M38.538,66.542A6.463,6.463,0,1,1,45,73a6.463,6.463,0,0,1-6.463-6.463" fill="#32e7ad"/>
    <path id="패스_2112" data-name="패스 2112" d="M38.538,23.455A6.463,6.463,0,1,1,45,29.918a6.463,6.463,0,0,1-6.463-6.463" fill="#5d62f3"/>
  </g>
</svg>
