<svg xmlns="http://www.w3.org/2000/svg" xmlns:xlink="http://www.w3.org/1999/xlink" width="90" height="90" viewBox="0 0 90 90">
  <defs>
    <clipPath id="clip-path">
      <rect id="사각형_615" data-name="사각형 615" width="90" height="90" fill="none"/>
    </clipPath>
  </defs>
  <g id="그룹_328" data-name="그룹 328" transform="translate(0 0)">
    <g id="그룹_327" data-name="그룹 327" transform="translate(0 0)" clip-path="url(#clip-path)">
      <path id="패스_2123" data-name="패스 2123" d="M73.05,79.447a9.906,9.906,0,0,1-8.094,9.215,9.8,9.8,0,0,1-10.721-5.853Z" transform="translate(0.136 1.186)" fill="#32e7ad"/>
      <path id="패스_2124" data-name="패스 2124" d="M89.772,68h0A10.717,10.717,0,0,0,82.8,59.89a2.457,2.457,0,0,1-1.777-1.924L78.47,43.341C76.462,31.822,65.844,23.679,54.415,25.4c-.2.029-.391.069-.586.1s-.391.065-.586.106a20.47,20.47,0,0,0-8.354,3.863A22.185,22.185,0,0,1,53.069,50.8L50.52,65.426a2.485,2.485,0,0,0,1.02,2.425,10.824,10.824,0,0,1,3.814,10.034,6.119,6.119,0,0,1-1.124,2.72l8.926-1.594,19.5-3.483,1.384-.247-.009-.056c3.8-.985,6.458-3.135,5.744-7.228" transform="translate(0.113 0.375)" fill="#32e7ad"/>
      <path id="패스_2125" data-name="패스 2125" d="M46.117,81.678l1.384.248.01-.056c2.833.285,5.3-.223,6.717-2.081l-9.341,1.67Z" transform="translate(0.112 1.191)" fill="#5d62f3"/>
      <path id="합치기_2" data-name="합치기 2" d="M-5343.341,970.439l-8.927-1.594-19.5-3.483-1.384-.248.01-.054c-3.8-.986-6.459-3.135-5.746-7.23a10.715,10.715,0,0,1,6.976-8.1,2.462,2.462,0,0,0,1.778-1.927l2.549-14.623c2.008-11.519,12.625-19.663,24.055-17.947.2.03.392.069.587.1s.39.066.586.107A20.482,20.482,0,0,1-5334,919.3q-.22.169-.435.344.215-.175.435-.344a22.189,22.189,0,0,1,8.18,21.336l-2.549,14.624a2.486,2.486,0,0,0,1.02,2.425,10.821,10.821,0,0,1,3.814,10.033,6.145,6.145,0,0,1-1.125,2.722l-9.34,1.669Zm2.689-12.756a10.756,10.756,0,0,0-3.95,8.4,10.751,10.751,0,0,1,3.95-8.4,2.517,2.517,0,0,0,1.055-2.03A2.513,2.513,0,0,1-5340.651,957.683Z" transform="translate(5379 -889.459)" fill="#5d62f3" stroke="rgba(0,0,0,0)" stroke-width="1"/>
      <path id="패스_2128" data-name="패스 2128" d="M16.773,79.447a9.906,9.906,0,0,0,8.094,9.215,9.8,9.8,0,0,0,10.721-5.853Z" transform="translate(0.042 1.186)" fill="#5d62f3"/>
      <path id="패스_2129" data-name="패스 2129" d="M48.694,0a4.716,4.716,0,0,0-3.947,2.147A4.715,4.715,0,0,0,40.8,0a4.765,4.765,0,0,0-4.736,4.795c0,5.993,8.683,10.789,8.683,10.789s8.683-4.8,8.683-10.789A4.765,4.765,0,0,0,48.694,0" transform="translate(0.09 0)" fill="#fc3fd6"/>
    </g>
  </g>
</svg>
