<svg xmlns="http://www.w3.org/2000/svg" width="46" height="46" viewBox="0 0 46 46">
  <g id="그룹_352" data-name="그룹 352" transform="translate(-6887 -1522.073)">
    <path id="패스_2144" data-name="패스 2144" d="M28.152,63.669a23,23,0,1,1,23,23,23,23,0,0,1-23-23" transform="translate(6858.848 1481.404)" fill="#5d62f3"/>
    <path id="패스_2145" data-name="패스 2145" d="M59.558,62.393l-2,10.112H52.491l-.771-3.322c-.454-1.931-1.049-4.466-1.574-6.79h-2.87c-.523,2.324-1.083,4.859-1.538,6.79L44.968,72.5h-4.9l-2.1-10.112H34.4V60.071h3.078L35.418,50.05H40L41.61,60.071h3.149c.245-1.057.735-3.049,1.436-5.946l.664-2.746h4.058l.63,2.746c.7,2.9,1.19,4.889,1.433,5.946h3.184L57.669,50.05h4.267L59.977,60.071h3.078v2.323ZM43.079,67.465q.105-.5.525-2.264c.245-1.177.491-2.083.666-2.807H41.96c.035.363.176,1.268.419,2.686s.35,2.445.456,3.078H42.9c.036-.091.072-.332.176-.693m5.668-11.53-.981,4.135h1.855Zm5.212,8.511c.28,1.3.456,2.112.84,3.711h.141c.1-.633.35-2.505.806-5.764H53.47c.174.724.315,1.419.489,2.053" transform="translate(6861.835 1485.104)" fill="#fff"/>
  </g>
</svg>
