<svg xmlns="http://www.w3.org/2000/svg" xmlns:xlink="http://www.w3.org/1999/xlink" width="267.663" height="44.231" viewBox="0 0 267.663 44.231">
  <defs>
    <clipPath id="clip-path">
      <rect id="사각형_693" data-name="사각형 693" width="267.663" height="44.231" fill="none"/>
    </clipPath>
  </defs>
  <g id="그룹_400" data-name="그룹 400" transform="translate(0 0)">
    <g id="그룹_399" data-name="그룹 399" transform="translate(0 0)" clip-path="url(#clip-path)">
      <path id="패스_2204" data-name="패스 2204" d="M154.73,10.512V6.983a4.222,4.222,0,0,1,4.48-4.39,4.325,4.325,0,0,1,4.48,4.39v3.484c0,2.67-.136,5.2-.362,7.558,7.648,3.032,11.4,9.5,10.454,23.125H165c1-7.241-.135-12.038-3.213-14.618-1.946,6.789-5.295,11.5-10.046,14.074-2.308,1.222-5.024,1.041-6.245-.543a3.656,3.656,0,0,1,.679-5.43c6.607-4.526,8.554-11.675,8.554-24.121m22.129-4.887a4.222,4.222,0,0,1,4.48-4.39,4.272,4.272,0,0,1,4.48,4.39V17.074h1.493c2.76,0,3.575,2.127,3.575,3.937,0,1.855-.86,3.937-3.575,3.937h-1.493V43.729h-8.96Z" transform="translate(-56.173 -0.48)" fill="#5d62f3"/>
      <path id="패스_2205" data-name="패스 2205" d="M246.681,34.9v9.684H237.45V34.9H224.689a3.473,3.473,0,0,1-3.8-3.665,3.5,3.5,0,0,1,3.8-3.711h34.756a3.5,3.5,0,0,1,3.8,3.711,3.473,3.473,0,0,1-3.8,3.665Zm-.09-24.619a16.068,16.068,0,0,1-.407,2.217h.453c7.466-.136,15.07,4.028,15.612,13.4h-8.915c-.815-4.616-4.978-6.924-10.092-6.788a8.28,8.28,0,0,0-.95.091c-4.028,4.118-10.183,6.335-15.7,6.7-2.489.181-4.525-1.177-4.8-3.3a3.48,3.48,0,0,1,3.078-4.118c6.245-.724,11.449-3.3,12.354-8.191H226.408a3.506,3.506,0,0,1-3.8-3.711,3.5,3.5,0,0,1,3.8-3.711h31.316a3.5,3.5,0,0,1,3.8,3.711,3.506,3.506,0,0,1-3.8,3.711Z" transform="translate(-85.813 -1.113)" fill="#5d62f3"/>
      <path id="패스_2206" data-name="패스 2206" d="M304.034,6.937V6.123c0-2.9,2.263-4.254,4.662-4.208a4.1,4.1,0,0,1,4.344,4.208v.815a26.362,26.362,0,0,1-.362,4.344c6.291.725,10.454,4.978,10.182,14.346h-8.689c.226-4.344-1.041-6.924-3.8-7.512a15.04,15.04,0,0,1-10.951,7.874,4,4,0,0,1-4.571-2.67,3.559,3.559,0,0,1,2.127-4.571c4.57-1.448,7.059-5.024,7.059-11.811m.724,36.792c-5.069,0-6.426-1.765-6.426-6.607V32.506c0-3.078,2.127-4.48,4.661-4.48a4.168,4.168,0,0,1,4.526,4.48v3.077c0,1,.226,1.131,1.222,1.131h24.573c2.76,0,3.8,1.674,3.8,3.484,0,1.855-1.085,3.53-3.8,3.53Zm22.175-29.234h-3.8a3.582,3.582,0,0,1-3.53-3.756,3.473,3.473,0,0,1,3.53-3.756h3.8V5.625a4.222,4.222,0,0,1,4.48-4.39,4.308,4.308,0,0,1,4.526,4.39V33.23h-9.006Z" transform="translate(-114.477 -0.48)" fill="#5d62f3"/>
      <path id="패스_2207" data-name="패스 2207" d="M375.892,7.616V6.258A3.827,3.827,0,0,1,380.01,2.05a3.961,3.961,0,0,1,4.3,4.208V7.616c0,1.267-.09,2.444-.181,3.53,5.431,1.087,8.282,5.3,7.6,13.486h-8.1c.543-2.851.091-5.2-1.312-6.381-1.946,4.163-5.159,6.562-9.051,7.105-2.263.317-4.118-.86-4.435-2.76a3.468,3.468,0,0,1,2.263-4.254c3.122-1.222,4.8-4.525,4.8-10.725m4.752,36.249c-6.291,0-9.277-3.666-9.277-8.553,0-4.843,2.987-8.644,9.277-8.644h21c6.2,0,9.278,3.711,9.278,8.644,0,4.978-3.078,8.553-9.278,8.553Zm18.6-6.336c1.991,0,2.489-1.222,2.489-2.217s-.5-2.127-2.489-2.127h-16.2c-1.991,0-2.489,1.132-2.489,2.127s.5,2.217,2.489,2.217Zm3.484-20.183h-2.036v7.739h-7.829v-20a3.665,3.665,0,0,1,3.892-3.846,3.75,3.75,0,0,1,3.937,3.846v5.476h2.036V5.081a3.736,3.736,0,0,1,3.983-3.846,3.786,3.786,0,0,1,3.982,3.846v20h-7.965Z" transform="translate(-143.255 -0.48)" fill="#5d62f3"/>
      <path id="패스_2208" data-name="패스 2208" d="M76.032,28.737C74.665,19.618,70.714,12.455,64.29,7.446,58.042,2.575,49.5,0,39.6,0,29.745,0,21.584,2.557,15.343,7.6,9.267,12.508,5.175,19.629,3.181,28.766l-.167.766,36.492,4.632.1.012,36.539-4.715Z" transform="translate(-1.171 0)" fill="#fc3fd6"/>
      <path id="패스_2209" data-name="패스 2209" d="M56.6,55.6l-9.834,3.568a10.588,10.588,0,0,0,19.668,0Z" transform="translate(-18.168 -21.6)" fill="#5d62f3"/>
      <path id="패스_2210" data-name="패스 2210" d="M67.456,45.471c-.975-6.633-5.683-10.437-12.917-10.437-6.89,0-11.474,3.7-12.909,10.418l-.168.783,12.981,1.682.1.012,13.026-1.716Z" transform="translate(-16.108 -13.611)" fill="#fff"/>
      <path id="패스_2211" data-name="패스 2211" d="M72.3,8,71.222,6.986,48.108,32.215V.235H46.632V32.18L24.1,7.028l-1.093,1,23.823,26.6.546-.5.531.5Z" transform="translate(-8.939 -0.091)" fill="#32e7ad"/>
      <path id="패스_2212" data-name="패스 2212" d="M76.848,47.6l-.008-.064a1.851,1.851,0,0,0-2.058-1.6L38.436,50.624,2.076,45.941a1.852,1.852,0,0,0-2.053,1.6L.015,47.6A1.852,1.852,0,0,0,1.6,49.662L38,54.35a3.232,3.232,0,0,0,.855,0l36.4-4.688A1.853,1.853,0,0,0,76.848,47.6" transform="translate(0 -17.843)" fill="#32e7ad"/>
      <path id="패스_2213" data-name="패스 2213" d="M63.832,54.42a2.7,2.7,0,1,1-2.7-2.716A2.7,2.7,0,0,1,63.832,54.42Z" transform="translate(-22.7 -20.087)" fill="#571ef3"/>
    </g>
  </g>
</svg>
